<svg width="264" height="342" xmlns="http://www.w3.org/2000/svg" xmlns:xlink="http://www.w3.org/1999/xlink"><defs><path id="a" d="M.002.075h4.501v1.42H.002z"/></defs><g fill="none" fill-rule="evenodd" opacity=".467"><g fill="#EDEDED"><path d="M225.045 371.124a.138.138 0 01.077-.093l46.771-21.963a.141.141 0 01.12.255l-46.77 21.963a.143.143 0 01-.19-.068.14.14 0 01-.008-.094"/><path d="M225.08 371.133a.072.072 0 01.012-.029l34.577-57.249a.104.104 0 01.145-.036c.05.03.066.095.036.145l-34.578 57.249a.105.105 0 01-.145.036.111.111 0 01-.048-.116m-161.989.476a.116.116 0 01.059-.076l60.941-31.072a.114.114 0 01.154.051.115.115 0 01-.05.154l-60.94 31.071a.113.113 0 01-.154-.05.107.107 0 01-.01-.078"/><path d="M123.997 340.528a.153.153 0 01.098-.106l40.597-13.689a.15.15 0 01.19.094.149.149 0 01-.094.19l-40.598 13.69a.15.15 0 01-.189-.096.134.134 0 01-.004-.083"/><path d="M124.031 340.537a.116.116 0 01.124-.088l61.812 6.795a.114.114 0 01.1.126c.004.06-.063.108-.127.101l-61.81-6.793a.114.114 0 01-.102-.127c0-.006.002-.01.003-.014"/><path d="M164.637 326.85a.113.113 0 01.027-.049.105.105 0 01.15-.001l21.213 20.482c.042.04.043.104.003.148a.104.104 0 01-.15.002l-21.213-20.48a.107.107 0 01-.03-.103"/><path d="M185.851 347.332a.11.11 0 01.06-.071l73.806-33.448a.104.104 0 01.138.054.106.106 0 01-.051.14l-73.806 33.447a.107.107 0 01-.141-.053.115.115 0 01-.006-.069"/><path d="M185.851 347.332a.111.111 0 01.035-.055l58.09-48.265a.105.105 0 01.148.014.104.104 0 01-.014.148l-58.088 48.265a.106.106 0 01-.149-.014.102.102 0 01-.022-.093"/><path d="M185.808 347.322a.147.147 0 01.155-.114l52.986 2.874a.15.15 0 01.14.158c.001.084-.074.145-.158.142l-52.985-2.875a.15.15 0 01-.138-.185"/><path d="M238.803 350.198a.14.14 0 01.133-.106l33.012-1.038a.141.141 0 01.009.281l-33.013 1.038a.142.142 0 01-.14-.175"/><path d="M238.83 350.205a.137.137 0 01.017-.04l44.448-63.198a.117.117 0 01.16-.028c.05.039.063.11.027.16l-44.447 63.199a.115.115 0 01-.16.028.116.116 0 01-.045-.12"/><path d="M238.761 350.189a.187.187 0 01.019-.05l20.819-36.322a.185.185 0 01.253-.068.19.19 0 01.068.254l-20.82 36.322a.186.186 0 01-.251.069.187.187 0 01-.088-.205"/><path d="M243.94 299.068a.106.106 0 01.208.035l-5.102 51.14c-.013.05-.057.1-.117.095a.11.11 0 01-.095-.117l5.104-51.138c0-.006 0-.01.002-.015m39.346-12.06a.106.106 0 01.207.044l-11.435 62.162-.003.005a.104.104 0 01-.12.08.106.106 0 01-.087-.124l11.437-62.16.001-.007z"/><path d="M259.648 313.883a.114.114 0 01.22-.01l12.193 35.284a.115.115 0 01-.07.146.116.116 0 01-.146-.072l-12.194-35.284a.132.132 0 01-.003-.064m-99.198 94.304a.113.113 0 01.054-.072l80.06-46.934a.113.113 0 01.155.04.115.115 0 01-.04.157l-80.061 46.936a.115.115 0 01-.168-.127m4.161-81.344a.135.135 0 01.078-.09.132.132 0 01.172.07l7.059 16.97a.131.131 0 01-.07.172.134.134 0 01-.175-.071l-7.057-16.968a.127.127 0 01-.007-.083m79.303-27.781a.126.126 0 01.045-.071l29.738-24.645a.132.132 0 01.186.02.13.13 0 01-.018.184l-29.738 24.645a.132.132 0 01-.213-.133"/><path d="M243.94 299.068a.108.108 0 01.072-.076l39.346-12.06a.11.11 0 01.133.07.107.107 0 01-.07.132l-39.348 12.061a.109.109 0 01-.133-.07.13.13 0 010-.057"/><path d="M243.897 299.058a.133.133 0 01.037-.066.15.15 0 01.212-.007l15.716 14.817c.06.055.066.15.006.21a.15.15 0 01-.211.007l-15.717-14.817a.148.148 0 01-.043-.144"/><path d="M259.656 313.885a.093.093 0 01.015-.032l44.522-69.553a.107.107 0 01.147-.031c.047.03.063.098.03.146l-44.522 69.551a.107.107 0 01-.146.033.107.107 0 01-.046-.114"/><path d="M259.554 313.86a.207.207 0 01.047-.09l23.63-26.877a.21.21 0 01.297-.018.21.21 0 01.02.299l-23.63 26.876a.212.212 0 01-.364-.19m-77.706 58.317a.14.14 0 01.07-.092l68.843-36.877a.14.14 0 01.191.059.142.142 0 01-.058.19l-68.842 36.877a.141.141 0 01-.192-.058.14.14 0 01-.012-.1"/><path d="M181.84 372.175a.148.148 0 01.065-.09l54.677-34.766a.15.15 0 01.206.048c.043.07.024.16-.046.207l-54.677 34.763a.152.152 0 01-.207-.045.159.159 0 01-.018-.117m11.793 3.791a.116.116 0 01.058-.076L276.573 333a.114.114 0 01.106.203l-82.882 42.89a.113.113 0 01-.154-.047.115.115 0 01-.01-.08"/><path d="M193.624 375.963a.123.123 0 01.048-.07l57.083-40.662a.126.126 0 01.173.03.123.123 0 01-.029.173l-57.083 40.659a.123.123 0 01-.192-.13m46.775-14.739a.221.221 0 01.081-.126l36.004-28.177a.23.23 0 01.283.361l-36.005 28.178a.232.232 0 01-.322-.04.232.232 0 01-.041-.196"/><path d="M240.458 361.24a.168.168 0 01.006-.023l10.207-25.947a.17.17 0 01.218-.094c.086.034.126.122.095.218l-10.207 25.946a.17.17 0 01-.217.095.166.166 0 01-.102-.196"/><path d="M245.963 315.545a.142.142 0 01.154-.106.14.14 0 01.123.156l-5.479 45.7c-.025.079-.08.133-.157.124a.141.141 0 01-.124-.157l5.479-45.7c.002-.005.002-.013.004-.017"/><path d="M229.961 255.271a.155.155 0 01.114-.115.155.155 0 01.193.111l15.986 60.27a.161.161 0 01-.114.195.157.157 0 01-.194-.113l-15.984-60.27a.163.163 0 010-.078"/><path d="M245.963 315.545a.14.14 0 01.207-.088l30.526 17.522c.069.04.097.122.05.192a.14.14 0 01-.192.052L246.03 315.7a.14.14 0 01-.067-.156"/><path d="M245.963 315.545a.263.263 0 01.013-.035l11.522-20.62a.141.141 0 01.193-.054.14.14 0 01.054.191l-11.522 20.62a.141.141 0 01-.26-.102"/><path d="M257.511 294.932l.002-.008 26.07-82.02a.116.116 0 01.145-.075c.058.02.091.077.074.144l-26.071 82.02a.116.116 0 01-.144.075.113.113 0 01-.076-.136"/><path d="M257.459 294.919v-.003l14.005-53.116a.168.168 0 01.324.082l-.001.004-14.004 53.116a.167.167 0 01-.324-.083"/><path d="M229.987 255.276a.133.133 0 01.237-.044l27.506 39.652a.128.128 0 01-.033.183.133.133 0 01-.184-.032l-27.506-39.652a.133.133 0 01-.02-.107"/><path d="M257.45 294.917a.181.181 0 01.033-.068l16.16-20.509a.175.175 0 01.247-.03c.076.06.09.171.03.249l-16.16 20.51a.176.176 0 01-.309-.151"/><path d="M283.581 212.911a.116.116 0 01.13-.086c.063.01.105.07.094.132l-9.91 61.51a.02.02 0 01-.003.009.113.113 0 01-.129.086.113.113 0 01-.094-.131l9.91-61.51.002-.01z"/><path d="M271.488 241.81a.139.139 0 01.127-.107.14.14 0 01.15.13l2.157 32.607a.14.14 0 11-.28.018l-2.157-32.607a.082.082 0 01.003-.041m-72.671 108.405a.146.146 0 01.07-.092l71.811-38.314a.14.14 0 01.19.058.141.141 0 01-.057.19l-71.81 38.315a.14.14 0 01-.19-.057.138.138 0 01-.014-.1"/><path d="M198.646 350.173c.002-.01.006-.019.01-.03l9.531-26.908a.32.32 0 01.405-.194.31.31 0 01.193.406l-9.532 26.907a.317.317 0 01-.607-.18"/><path d="M198.774 350.205a.183.183 0 01.121-.132l37.707-12.801a.185.185 0 01.235.115.185.185 0 01-.117.234l-37.707 12.802a.182.182 0 01-.233-.115.176.176 0 01-.006-.103"/><path d="M236.533 337.415a.132.132 0 01.046-.072l60.46-48.424a.132.132 0 01.166.206l-60.46 48.425a.132.132 0 01-.212-.135"/><path d="M236.414 337.386a.242.242 0 01.095-.143l34.102-25.514a.255.255 0 01.306.41l-34.103 25.512a.256.256 0 01-.4-.265"/><path d="M208.341 323.306a.135.135 0 01.011-.032.151.151 0 01.202-.066l28.174 14.104a.157.157 0 01.068.203.151.151 0 01-.201.065l-28.176-14.105a.149.149 0 01-.078-.17"/><path d="M236.516 337.41a.149.149 0 01.123-.111l14.166-2.115a.15.15 0 01.044.297l-14.166 2.114a.149.149 0 01-.169-.126.15.15 0 01.002-.058"/><path d="M250.709 335.304a.148.148 0 01.016-.042l54.194-78.166a.123.123 0 01.17-.032c.056.04.07.115.032.171l-54.192 78.167a.124.124 0 01-.172.032.123.123 0 01-.048-.13"/><path d="M250.674 335.295a.154.154 0 01.041-.076l46.293-46.309a.159.159 0 01.226 0 .164.164 0 010 .225l-46.295 46.31a.157.157 0 01-.223 0 .157.157 0 01-.042-.15"/><path d="M250.709 335.304a.106.106 0 01.025-.052l19.937-23.398a.124.124 0 01.173-.016.124.124 0 01.014.174l-19.936 23.4a.12.12 0 01-.174.014.123.123 0 01-.04-.122"/><path d="M250.622 335.282a.214.214 0 01.187-.16l25.798-2.23a.21.21 0 11.037.42l-25.799 2.23a.213.213 0 01-.229-.192.242.242 0 01.006-.068"/><path d="M276.515 333.075c0-.003 0-.009.003-.014l28.395-75.937a.113.113 0 01.147-.064c.055.02.084.077.071.133l-.004.013-28.395 75.935a.114.114 0 01-.217-.066m-46.528-77.799a.123.123 0 01.047-.071l53.576-42.369a.131.131 0 11.163.206l-53.576 42.369a.132.132 0 01-.185-.02.137.137 0 01-.025-.115"/><path d="M229.91 255.259a.223.223 0 01.04-.081l27.696-35.609a.211.211 0 01.297-.036.21.21 0 01.035.296l-27.695 35.61a.212.212 0 01-.297.036.21.21 0 01-.076-.216"/><path d="M229.961 255.271a.154.154 0 01.105-.113l41.509-13.466a.161.161 0 01.202.102.167.167 0 01-.103.2l-41.51 13.465a.157.157 0 01-.199-.102.162.162 0 01-.004-.086"/><path d="M257.667 219.664a.152.152 0 01.066-.092.151.151 0 01.206.047l13.812 22.145a.15.15 0 01-.047.206.152.152 0 01-.207-.047l-13.812-22.143a.16.16 0 01-.018-.116M18.657 400.002a.164.164 0 01.039-.075l48.753-57.54a.186.186 0 01.26-.022c.078.064.088.18.021.26l-48.753 57.54a.185.185 0 01-.32-.163m87.52-106.258a.166.166 0 01.194-.123c.091.018.15.105.133.196l-14.14 72.762c-.017.106-.106.15-.197.132a.165.165 0 01-.131-.196l14.14-72.762.001-.009m36.442 77.099a.206.206 0 01.026-.056l47.141-68.172a.169.169 0 01.234-.042c.076.053.09.155.042.233l-47.143 68.173a.168.168 0 01-.3-.136m65.654-47.555a.22.22 0 01.433.052l.153 38.941c.008.128-.098.221-.22.222a.219.219 0 01-.22-.219l-.152-38.942c0-.019.002-.037.006-.054"/><path d="M208.358 323.31a.152.152 0 01.014-.034l46.862-83.085a.133.133 0 01.18-.05.128.128 0 01.05.18L208.6 323.406a.133.133 0 01-.18.05.134.134 0 01-.063-.147"/><path d="M219.189 266.688a.123.123 0 01.24.053l-10.821 56.623a.126.126 0 01-.145.097.122.122 0 01-.097-.143l10.82-56.624.003-.006"/><path d="M208.341 323.306a.147.147 0 01.118-.112l62.278-11.408a.15.15 0 01.175.12.149.149 0 01-.12.174l-62.28 11.408a.149.149 0 01-.171-.182m105.061-125.863a.121.121 0 01.14-.09c.068.01.111.076.1.142l-16.399 91.549c-.02.077-.078.111-.144.099A.123.123 0 01297 289l16.399-91.548.003-.009m-55.718 22.224a.143.143 0 01.035-.061l60.305-60.122a.133.133 0 01.186 0c.05.05.05.134 0 .187l-60.304 60.122a.133.133 0 01-.188 0 .136.136 0 01-.034-.126"/><path d="M257.667 219.664a.14.14 0 01.05-.08l52.426-42.538a.149.149 0 01.21.02.151.151 0 01-.022.212l-52.424 42.538a.15.15 0 01-.211-.022.153.153 0 01-.029-.13"/><path d="M257.658 219.662a.157.157 0 01.113-.115l25.882-6.762a.155.155 0 01.192.113.16.16 0 01-.112.194l-25.88 6.76a.159.159 0 01-.195-.19M17.75 323.185L1.556 337.086l-.891 1.183 17.29-14.844a.154.154 0 00.015-.223.157.157 0 00-.222-.017"/><path d="M9.25 326.877l-.545.723 9.237-4.094a.216.216 0 00.113-.29.22.22 0 00-.292-.112l-8.513 3.773zm58.195 15.593a.137.137 0 01.023-.05l57.028-81.397a.15.15 0 01.246.17l-57.03 81.4a.148.148 0 01-.207.035.15.15 0 01-.06-.158"/><path d="M67.368 342.451a.236.236 0 01.043-.088l38.75-48.72a.23.23 0 11.36.286l-38.752 48.72a.23.23 0 01-.401-.198"/><path d="M105.98 293.697a.354.354 0 01.038-.093l18.278-32.677a.37.37 0 01.502-.142.366.366 0 01.143.504l-18.278 32.676a.37.37 0 01-.682-.268"/><path d="M102.591 248.675a.15.15 0 01.133-.114.152.152 0 01.162.137l3.602 45.075a.149.149 0 01-.136.161.15.15 0 01-.161-.138l-3.603-45.074a.121.121 0 01.003-.047"/><path d="M106.203 293.751a.14.14 0 01.152-.106l83.583 8.926a.14.14 0 11-.029.28l-83.583-8.927a.14.14 0 01-.126-.155c.001-.006 0-.012.003-.018"/><path d="M203.067 197.397a.131.131 0 01.145-.098.132.132 0 01.115.146l-13.272 105.282c-.014.073-.075.125-.147.115a.132.132 0 01-.115-.147l13.271-105.282c0-.005 0-.01.003-.016"/><path d="M182.899 237.007a.21.21 0 01.184-.16.21.21 0 01.231.188l6.82 65.653a.208.208 0 01-.188.232.21.21 0 01-.232-.187l-6.82-65.654a.228.228 0 01.005-.072"/><path d="M124.473 261.072a.149.149 0 01.225-.09l65.307 41.602a.15.15 0 01-.162.253l-65.305-41.604a.147.147 0 01-.065-.16"/><path d="M189.745 302.667a.212.212 0 01.036-.074l29.384-35.993a.184.184 0 01.26-.025c.08.065.09.18.026.26l-29.384 35.994a.186.186 0 01-.322-.162"/><path d="M202.617 170.84a.132.132 0 01.259.009l16.562 95.847a.13.13 0 01-.108.152.13.13 0 01-.152-.108l-16.563-95.847a.13.13 0 01.002-.053"/><path d="M219.145 266.678c.001-.001 0-.003.003-.006l20.187-71.911a.167.167 0 01.206-.116c.088.025.14.113.118.201l-.002.006-20.19 71.911a.165.165 0 01-.205.115.165.165 0 01-.117-.2"/><path d="M203.024 197.388a.175.175 0 01.132-.13.173.173 0 01.21.131l16.113 69.289a.174.174 0 01-.132.211.176.176 0 01-.211-.132l-16.112-69.288a.176.176 0 010-.081"/><path d="M182.916 237.012a.194.194 0 01.31-.104l36.204 29.66a.19.19 0 01.028.272.193.193 0 01-.273.028l-36.203-29.66a.193.193 0 01-.066-.196"/><path d="M219.145 266.678a.163.163 0 01.064-.095l36.04-26.461a.167.167 0 01.199.269l-36.042 26.461a.167.167 0 01-.26-.174"/><path d="M255.177 240.214a.171.171 0 01.057-.093l60.086-50.847a.176.176 0 01.228.27l-60.086 50.846a.176.176 0 01-.285-.176"/><path d="M239.299 194.758a.202.202 0 01.131-.143c.105-.035.22.02.258.126l15.853 45.448a.208.208 0 01-.127.259.203.203 0 01-.256-.125l-15.853-45.45a.207.207 0 01-.006-.115"/><path d="M255.186 240.216a.167.167 0 01.217-.118l55.996 19.421c.086.031.13.125.105.213a.17.17 0 01-.214.105l-55.996-19.423a.168.168 0 01-.108-.198M50.485 320.411a.2.2 0 01.123-.139.2.2 0 01.262.113l24.718 62.232a.202.202 0 01-.113.264.203.203 0 01-.263-.114l-24.718-62.233a.208.208 0 01-.009-.123m-4.809-41.873l-20.484 99.178c-.02.094.04.188.136.208.096.02.203-.046.209-.138l20.636-99.907-.497.659zM37.642 289.2l-19.934 34.02a.13.13 0 00-.018.046.162.162 0 00.078.182.164.164 0 00.228-.058l21.386-36.499-1.74 2.308z"/><path d="M17.613 323.246a.244.244 0 01.135-.164l59.083-27.66a.246.246 0 01.21.447l-59.083 27.659a.246.246 0 01-.345-.282"/><path d="M86.33 224.59l-9.568 71.033a.178.178 0 00.15.198c.097.011.165-.048.2-.151l9.651-71.656-.434.575z"/><path d="M61.695 257.28l14.995 38.462a.264.264 0 10.492-.192l-15.113-38.766-.374.496z"/><path d="M47.4 276.251l29.454 19.52a.152.152 0 00.207-.042.152.152 0 00-.042-.208l-29.439-19.51-.18.24z"/><path d="M76.773 295.606a.2.2 0 01.016-.04l25.802-46.937a.167.167 0 01.227-.066c.08.045.106.147.065.228l-25.8 46.936a.169.169 0 01-.228.065.17.17 0 01-.082-.186"/><path d="M102.591 248.675a.157.157 0 01.018-.043l39.422-63.802a.149.149 0 01.205-.049c.072.044.09.134.05.208l-39.422 63.8a.153.153 0 01-.207.05.154.154 0 01-.066-.164"/><path d="M102.446 248.639a.29.29 0 01.018-.053l20.917-45.798a.298.298 0 01.396-.147.3.3 0 01.149.395l-20.917 45.8a.3.3 0 01-.563-.196"/><path d="M93.775 214.708l8.8 34.045a.168.168 0 00.324-.085l-8.867-34.3-.257.34z"/><path d="M102.583 248.673c.003-.014.01-.027.016-.04a.158.158 0 01.215-.06l21.883 12.398a.156.156 0 01.059.214.157.157 0 01-.215.06l-21.882-12.397a.157.157 0 01-.076-.175"/><path d="M124.481 261.075l.013-.034 51.667-94.596a.138.138 0 01.191-.056c.066.037.094.125.056.19l-51.666 94.596a.141.141 0 01-.191.057.142.142 0 01-.07-.157"/><path d="M141.978 184.866a.187.187 0 01.22-.137c.1.023.163.122.14.22l-17.54 76.2v.002a.185.185 0 01-.221.137.184.184 0 01-.139-.222l17.54-76.198v-.002"/><path d="M124.465 261.07a.153.153 0 01.093-.108l58.485-24.052a.16.16 0 01.207.087.156.156 0 01-.085.207l-58.486 24.051a.158.158 0 01-.214-.184"/><path d="M182.907 237.01c0-.004.003-.006.004-.01l19.641-66.186a.204.204 0 01.252-.137.199.199 0 01.135.252l-19.642 66.186a.201.201 0 01-.25.137.204.204 0 01-.14-.243"/><path d="M182.976 237.026a.136.136 0 01.049-.075l56.392-42.25a.13.13 0 01.185.026.132.132 0 01-.026.185l-56.392 42.251a.132.132 0 01-.208-.137"/><path d="M182.822 236.988a.295.295 0 01.023-.062l20.092-39.628a.289.289 0 01.39-.128.286.286 0 01.128.39l-20.092 39.628a.291.291 0 01-.541-.2"/><path d="M176.12 166.473a.168.168 0 01.33.022l6.82 70.546a.17.17 0 01-.15.183.168.168 0 01-.183-.15l-6.82-70.546c0-.019 0-.038.004-.055"/><path d="M142.029 184.878a.134.134 0 01.047-.073.132.132 0 01.186.022l40.946 52.148a.135.135 0 01-.023.187.134.134 0 01-.185-.022l-40.946-52.15a.135.135 0 01-.025-.112m69.156-91.461a.132.132 0 01.26.04l-8.117 103.983c-.011.08-.072.126-.142.12a.133.133 0 01-.123-.14l8.12-103.982c0-.008 0-.015.002-.02"/><path d="M203.05 197.394a.187.187 0 01.025-.054l45.702-61.812a.15.15 0 11.241.178l-45.702 61.812a.149.149 0 01-.209.03.148.148 0 01-.057-.154"/><path d="M202.293 170.76a.466.466 0 01.92.103l.449 26.558a.468.468 0 01-.933.016l-.45-26.559a.457.457 0 01.014-.118"/><path d="M203.016 197.385a.185.185 0 01.166-.14l36.3-2.623a.188.188 0 01.2.172.188.188 0 01-.173.197l-36.3 2.623a.185.185 0 01-.193-.229"/><path d="M176.096 166.467a.194.194 0 01.335-.082l26.91 30.917a.194.194 0 01-.291.255l-26.912-30.918a.195.195 0 01-.042-.172m72.588-30.902a.221.221 0 01.248-.166.22.22 0 01.183.252l-9.401 59.19a.223.223 0 01-.252.183.22.22 0 01-.184-.253l9.402-59.189c0-.005.002-.011.004-.017"/><path d="M202.575 170.83a.176.176 0 01.268-.106l36.75 23.936c.08.05.104.16.05.242a.174.174 0 01-.243.052l-36.75-23.936a.173.173 0 01-.075-.189"/><path d="M239.343 194.769a.157.157 0 01.142-.121l75.939-5.397a.156.156 0 01.168.147.16.16 0 01-.147.17l-75.937 5.397a.16.16 0 01-.165-.196"/><path d="M248.77 135.585a.145.145 0 01.025-.05.13.13 0 01.185-.02l66.536 53.791a.13.13 0 01.022.185.133.133 0 01-.187.02l-66.536-53.79a.133.133 0 01-.046-.136M3.628 334.337l31.058 94.248c.03.092.13.143.223.112a.174.174 0 00.11-.222l-31.133-94.48-.258.342zm25.229-33.479L63.222 403.71a.187.187 0 00.234.117.189.189 0 00.118-.235L29.127 300.5l-.27.358z"/><path d="M10.138 325.698l53.121 78.046a.168.168 0 00.277-.189L10.35 325.416l-.213.282z"/><path d="M50.485 320.411a.207.207 0 01.168-.152.205.205 0 01.23.17l12.715 83.19a.203.203 0 11-.4.061l-12.716-83.19a.218.218 0 01.003-.079"/><path d="M38.511 288.046l11.966 32.489a.22.22 0 10.412-.15l-12.063-32.757-.315.418z"/><path d="M30.826 298.245l19.565 22.469a.387.387 0 10.583-.508l-19.672-22.592-.476.631z"/><path d="M21.905 310.084l28.72 10.532a.166.166 0 00.214-.1c.038-.101-.013-.181-.099-.213l-28.625-10.498-.21.279zm82.527-109.517l-.296.393 19.494 2.164a.208.208 0 00.233-.188.213.213 0 00-.187-.233l-19.244-2.136z"/><path d="M116.131 185.041l7.352 17.942c.038.093.146.14.24.1a.183.183 0 00.101-.24l-7.434-18.146-.259.344z"/><path d="M109.811 193.428l13.752 9.614c.072.051.17.034.22-.038a.164.164 0 00-.04-.221l-13.74-9.608-.192.253z"/><path d="M123.49 202.873a.175.175 0 01.046-.08l18.505-18.003a.167.167 0 11.233.24l-18.505 18.003a.168.168 0 01-.279-.16"/><path d="M152.323 137.013l-10.337 47.858a.176.176 0 00.343.08l.001-.004 10.498-48.605-.505.671z"/><path d="M136.686 157.764l5.333 27.172a.143.143 0 00.166.113.144.144 0 00.111-.167l-5.381-27.422-.229.304z"/><path d="M141.901 184.847a.262.262 0 01.13-.17l34.127-18.397a.264.264 0 11.25.465l-34.125 18.397a.263.263 0 01-.382-.295"/><path d="M176.113 166.47a.314.314 0 01.013-.033l35.03-73.065a.177.177 0 01.235-.083.18.18 0 01.081.235l-35.03 73.064a.173.173 0 01-.234.082.175.175 0 01-.095-.2"/><path d="M176.07 166.46a.218.218 0 01.249-.164l26.462 4.36c.12.018.2.13.181.25-.01.126-.132.202-.252.182l-26.461-4.359a.22.22 0 01-.182-.252.03.03 0 01.004-.017"/><path d="M164.925 120.29l11.18 46.266c.022.1.123.16.222.136a.187.187 0 00.137-.224l-11.251-46.56-.288.381zm46.226-26.881a.168.168 0 01.181-.127c.092.01.158.093.148.185l-8.568 77.422a.17.17 0 01-.185.148.168.168 0 01-.148-.185l8.569-77.422.003-.021"/><path d="M202.575 170.83a.17.17 0 01.065-.098l46.151-35.255a.176.176 0 01.214.28l-46.153 35.254a.175.175 0 01-.246-.033.172.172 0 01-.03-.149"/><path d="M248.76 135.584a.15.15 0 01.013-.03l42.38-81.735a.14.14 0 01.19-.062c.07.038.094.123.06.19l-42.38 81.735a.142.142 0 01-.19.06.144.144 0 01-.072-.158"/><path d="M211.185 93.417a.131.131 0 01.227-.057l37.585 42.17a.13.13 0 01-.011.185.133.133 0 01-.187-.01l-37.584-42.17a.133.133 0 01-.03-.118"/><path d="M248.77 135.585a.136.136 0 01.091-.095l87.849-25.75c.07-.02.143.02.165.088.02.07-.02.143-.09.164l-87.85 25.752a.133.133 0 01-.163-.09.13.13 0 01-.003-.069m-66.575-38.212l-.3.397 29.446-4.147a.179.179 0 00.149-.2.18.18 0 00-.199-.15l-29.096 4.1z"/><path d="M211.16 93.41a.162.162 0 01.047-.078l63.796-58.586a.157.157 0 01.223.009.158.158 0 01-.01.224L211.42 93.565a.156.156 0 01-.222-.01.155.155 0 01-.038-.144"/><path d="M211.16 93.41a.162.162 0 01.084-.105l79.964-39.564a.157.157 0 01.212.072.16.16 0 01-.071.212L211.385 93.59a.159.159 0 01-.214-.072.163.163 0 01-.01-.108m43.681-78.402a.192.192 0 01.104-.13l69.09-35.794a.203.203 0 01.186.359l-69.09 35.793a.202.202 0 01-.29-.227"/><path d="M254.74 14.984a.309.309 0 01.515-.147l20.07 19.805a.31.31 0 01.005.435.31.31 0 01-.436.004l-20.07-19.805a.31.31 0 01-.084-.292"/><path d="M254.594 14.948a.48.48 0 01.06-.137l13.462-21.113a.455.455 0 01.63-.139.462.462 0 01.14.633l-13.46 21.111a.458.458 0 01-.831-.355"/><path d="M268.296-6.106a.212.212 0 01.171-.158c.115-.02.225.06.241.175l6.61 40.916a.21.21 0 01-.173.244.213.213 0 01-.243-.175l-6.61-40.918a.199.199 0 01.004-.084"/></g><path d="M126.406 340.632a1.5 1.5 0 11-2.913-.713 1.5 1.5 0 012.913.713m47.378 3.524a2 2 0 11-3.886-.95 2 2 0 013.886.95m-7.148-17.033a1.5 1.5 0 11-2.914-.712 1.5 1.5 0 012.914.712m79.664-27.62a1.5 1.5 0 11-2.915-.711 1.5 1.5 0 012.914.711m14.967 15.035a1.5 1.5 0 11-2.914-.713 1.5 1.5 0 012.914.713m-12.82 1.988a1.999 1.999 0 11-3.883-.949 1.999 1.999 0 013.883.95m12.048-20.974a1.999 1.999 0 11-3.884-.947 1.999 1.999 0 013.884.947m-21.896 42.35a1.999 1.999 0 11-3.884-.947 1.999 1.999 0 013.884.947m14.005-1.968a1.999 1.999 0 11-3.884-.947 1.999 1.999 0 013.884.947m-19.818-80.045a2 2 0 11-3.884-.95 2 2 0 013.884.95m-21.953 67.35a2 2 0 11-3.885-.947 2 2 0 013.885.947m49.034-103.288a2 2 0 11-3.885-.951 2 2 0 013.885.95M69.988 342.32a2 2 0 11-3.885-.948 2 2 0 013.885.949m38.91-48.312a2 2 0 11-3.885-.947 2 2 0 013.885.947m83.379 8.989a2 2 0 11-3.885-.949 2 2 0 013.885.949m29.281-35.533a2 2 0 11-3.886-.95 2 2 0 013.886.95m36.26-26.518a1.999 1.999 0 11-3.883-.948 1.999 1.999 0 013.883.948m-237.004 83.48a2.5 2.5 0 11-4.857-1.187 2.5 2.5 0 014.857 1.187m58.864-28.267a2.5 2.5 0 11-4.855-1.187 2.5 2.5 0 014.855 1.188m26.306-46.541a2.499 2.499 0 11-4.856-1.186 2.5 2.5 0 114.856 1.186m21.187 11.83a2 2 0 11-3.884-.95 2 2 0 013.884.95m58.055-23.868a2 2 0 11-3.884-.949 2 2 0 013.884.949m20.091-39.955a2 2 0 11-3.885-.947 2 2 0 013.885.947m36.806-2.317a2 2 0 11-3.886-.95 2 2 0 013.886.95M53.22 321.3a2.5 2.5 0 11-4.855-1.186 2.5 2.5 0 014.856 1.186" fill="#EDEDED"/><g transform="rotate(-53 301.682 92.576)"><mask id="b" fill="#fff"><use xlink:href="#a"/></mask><path d="M.002.076a2.574 2.574 0 003.27 1.13A2.55 2.55 0 004.503.075H.002z" fill="#EDEDED" mask="url(#b)"/></g><path d="M126.688 203.867a2.5 2.5 0 01-3.02 1.835 2.501 2.501 0 011.185-4.857 2.502 2.502 0 011.835 3.022m17.657-18.378a2 2 0 11-3.887-.95 2 2 0 013.887.95m33.841-18.323a2 2 0 11-3.887-.95 2 2 0 013.887.95m26.991 4.062a2 2 0 11-3.886-.951 2 2 0 013.886.95m46.479-35.094a1.998 1.998 0 01-2.417 1.467 1.998 1.998 0 01-1.468-2.416 2 2 0 013.885.95m-38.103-42.488a2 2 0 11-3.886-.95 2 2 0 013.886.95m44.562-77.482a2.5 2.5 0 11-4.858-1.186 2.5 2.5 0 014.858 1.186" fill="#EDEDED"/><g fill="#093657"><path d="M200.33 334.513a.082.082 0 01.055-.084.084.084 0 01.108.052l14.085 40.714c.022.043-.006.093-.052.107a.083.083 0 01-.106-.053l-14.087-40.713a.062.062 0 01-.004-.023m32.681 44.272a.054.054 0 01.006-.033l21.058-47.934a.072.072 0 01.132.058l-21.06 47.934a.072.072 0 01-.137-.025m32.129-32.561a.092.092 0 01.004-.04l7.797-23.218a.104.104 0 11.196.066l-7.795 23.22a.103.103 0 01-.132.064.105.105 0 01-.07-.092"/><path d="M254.056 330.852a.084.084 0 01.033-.074.086.086 0 01.12.02l11.101 15.371a.083.083 0 01-.02.117.085.085 0 01-.117-.018l-11.102-15.372a.103.103 0 01-.015-.044"/><path d="M254.068 330.851a.07.07 0 01.066-.075l31.151-2.177a.071.071 0 01.077.067.074.074 0 01-.067.076l-31.151 2.177a.073.073 0 01-.076-.068zm-86.194-20.784c0-.018.004-.038.017-.056a.084.084 0 01.118-.016l32.455 24.446c.037.028.044.08.017.12a.086.086 0 01-.119.015l-32.454-24.445a.085.085 0 01-.034-.064"/><path d="M200.349 334.512a.062.062 0 01.06-.067l53.727-3.663a.064.064 0 01.068.06.062.062 0 01-.06.069l-53.727 3.662a.063.063 0 01-.068-.06z"/><path d="M254.068 330.851a.068.068 0 01.01-.042l28.382-44.88a.072.072 0 01.1-.022c.031.02.042.067.022.098l-28.382 44.88a.074.074 0 01-.099.024.073.073 0 01-.033-.058"/><path d="M254.056 330.852v-.023l7.02-33.747a.085.085 0 01.101-.065c.046.01.076.051.066.1l-7.02 33.749a.084.084 0 01-.1.063.082.082 0 01-.067-.077"/><path d="M253.99 330.856a.15.15 0 01.091-.147l18.898-7.848a.15.15 0 01.117.275l-18.898 7.849a.15.15 0 01-.207-.129"/><path d="M272.953 323.003a.08.08 0 01.002-.026l9.484-37.03a.085.085 0 01.103-.062.086.086 0 01.06.103l-9.482 37.032a.086.086 0 01-.104.061.087.087 0 01-.063-.078"/><path d="M261.082 297.104a.074.074 0 01.046-.075.076.076 0 01.103.037l11.878 25.9c.016.04 0 .086-.039.103-.04.017-.086.002-.102-.037l-11.878-25.9a.077.077 0 01-.008-.028m-42.245 46.36a.095.095 0 01.016-.062.102.102 0 01.143-.032l34.08 21.496c.05.032.063.095.032.144a.103.103 0 01-.143.031l-34.08-21.495a.104.104 0 01-.048-.082"/><path d="M239.245 325.773a.106.106 0 01.07-.104.104.104 0 01.132.065l13.671 39.186a.107.107 0 01-.063.132.105.105 0 01-.133-.064l-13.671-39.187a.092.092 0 01-.006-.028m-107.387 3.891a.078.078 0 01.025-.064l26.774-26.175a.082.082 0 01.118.001.084.084 0 010 .119L132 329.719a.083.083 0 01-.118 0 .085.085 0 01-.024-.055"/><path d="M131.851 329.665a.087.087 0 01.048-.086l36.016-19.597a.092.092 0 01.124.038.09.09 0 01-.037.122l-36.018 19.598a.092.092 0 01-.123-.038.099.099 0 01-.01-.037"/><path d="M167.88 310.067a.09.09 0 01.019-.055l21.329-25.742a.078.078 0 01.109-.01.077.077 0 01.01.11l-21.329 25.743a.078.078 0 01-.109.01.074.074 0 01-.028-.056"/><path d="M158.619 303.49a.09.09 0 01.018-.062.097.097 0 01.135-.023l9.243 6.577c.044.033.056.095.024.137a.1.1 0 01-.137.024l-9.243-6.579a.1.1 0 01-.04-.073m102.431-6.385a.109.109 0 01.022-.072l21.186-28.877a.11.11 0 01.177.13l-21.187 28.878a.11.11 0 01-.198-.06"/><path d="M261.043 297.106a.12.12 0 01.062-.11l21.361-11.132a.117.117 0 01.158.05.115.115 0 01-.048.157l-21.361 11.132a.117.117 0 01-.172-.097"/><path d="M238.24 284.726a.112.112 0 01.012-.061.111.111 0 01.15-.043l22.81 12.381a.11.11 0 01.046.15.112.112 0 01-.151.043l-22.81-12.38a.108.108 0 01-.058-.09m-74.942 76.626c0-.028.009-.055.03-.074l39.44-33.793a.092.092 0 01.129.01.09.09 0 01-.01.13l-39.44 33.79a.091.091 0 01-.128-.009.087.087 0 01-.02-.054"/><path d="M163.297 361.352a.092.092 0 01.052-.087l40.012-19.008c.046-.02.1-.001.121.043a.09.09 0 01-.042.122l-40.012 19.007a.091.091 0 01-.13-.077"/><path d="M163.316 361.35a.071.071 0 01.05-.072l55.553-17.887a.069.069 0 01.089.045.07.07 0 01-.046.09l-55.552 17.89a.073.073 0 01-.094-.066"/><path d="M218.837 343.464a.107.107 0 01.004-.04l13.336-38.923a.102.102 0 01.131-.064.105.105 0 01.065.132l-13.334 38.922a.105.105 0 01-.133.065.105.105 0 01-.07-.092"/><path d="M202.703 327.562a.127.127 0 01.035-.095.125.125 0 01.174 0l16.115 15.903a.124.124 0 01.001.174.123.123 0 01-.174.001l-16.114-15.903a.12.12 0 01-.037-.08"/><path d="M203.31 342.345l-.001-.011a.09.09 0 01.097-.084l15.54 1.118c.05.003.093.042.085.096a.09.09 0 01-.097.084l-15.54-1.117a.093.093 0 01-.085-.086"/><path d="M218.824 343.465a.118.118 0 01.039-.096l20.41-17.69a.117.117 0 01.164.012.116.116 0 01-.011.165l-20.408 17.69a.119.119 0 01-.166-.011.115.115 0 01-.028-.07"/><path d="M232.126 304.543a.15.15 0 01.29-.055l7.075 21.233a.15.15 0 11-.284.093l-7.073-21.232a.131.131 0 01-.008-.039m-73.494-1.053a.067.067 0 01.005-.034l13.524-37.75a.084.084 0 11.159.056l-13.524 37.752a.085.085 0 01-.164-.024"/><path d="M158.606 303.491a.107.107 0 01.051-.1l30.572-19.166a.112.112 0 01.152.036.113.113 0 01-.036.153l-30.57 19.165a.112.112 0 01-.17-.088"/><path d="M172.117 265.742a.129.129 0 01.04-.099.126.126 0 01.175.008l17.045 18.585a.125.125 0 01-.007.176.125.125 0 01-.174-.009l-17.047-18.585a.136.136 0 01-.032-.076"/><path d="M189.21 284.324l-.001-.004c0-.044.036-.08.078-.078l49.063.4a.077.077 0 01.077.077.078.078 0 01-.078.078l-49.063-.399a.08.08 0 01-.077-.074"/><path d="M238.272 284.723a.074.074 0 01.05-.076l43.997-16.497a.078.078 0 01.1.043.076.076 0 01-.045.101l-43.997 16.498a.08.08 0 01-.105-.069"/><path d="M238.259 284.724a.093.093 0 01.022-.065l25.68-29.54a.09.09 0 01.128-.01.09.09 0 01.01.128l-25.68 29.541a.091.091 0 01-.13.01.094.094 0 01-.03-.064"/><path d="M238.278 284.723a.06.06 0 01.004-.026l11.176-33.9a.07.07 0 01.09-.046.07.07 0 01.046.088l-11.177 33.902a.07.07 0 01-.09.046.074.074 0 01-.049-.064m25.68-29.541a.07.07 0 01.013-.044.07.07 0 01.1-.018l18.317 13.043c.033.023.04.071.017.1a.07.07 0 01-.1.016l-18.316-13.043a.072.072 0 01-.031-.054m-89.424 41.608a.084.084 0 01.039-.075.083.083 0 01.116.026l28.782 45.554a.082.082 0 01-.026.116.085.085 0 01-.116-.026l-28.782-45.554a.076.076 0 01-.013-.04"/><path d="M203.225 342.35v-.002l-.575-14.787a.176.176 0 01.17-.181c.096-.005.174.057.181.167l.575 14.787a.175.175 0 01-.35.016"/><path d="M174.528 296.791a.091.091 0 01.158-.067l28.207 30.77c.036.036.03.093-.006.127a.091.091 0 01-.128-.004l-28.208-30.77a.08.08 0 01-.023-.056"/><path d="M202.736 327.56a.088.088 0 01.034-.077l29.449-23.02a.091.091 0 01.128.016.094.094 0 01-.015.128l-29.45 23.02a.094.094 0 01-.128-.015.104.104 0 01-.018-.052m-30.626-61.818v-.016l1.18-17.659a.128.128 0 01.137-.122c.071.006.13.067.12.138l-1.177 17.661a.13.13 0 01-.26-.002m77.273-14.917c0-.016.002-.033.005-.049a.146.146 0 01.179-.096l14.504 4.361a.146.146 0 01.095.179.143.143 0 01-.178.095l-14.503-4.36a.145.145 0 01-.102-.13"/><path d="M249.442 250.822a.083.083 0 01.013-.051l23.221-35.321a.083.083 0 01.117-.023c.04.025.05.078.024.116l-23.22 35.32a.086.086 0 01-.117.026.086.086 0 01-.038-.067m14.503 4.361c0-.026.008-.05.029-.069l29.429-26.16a.085.085 0 11.112.127l-29.43 26.16a.088.088 0 01-.119-.006.086.086 0 01-.02-.052m-20.601 33.335a.084.084 0 01.134-.072l49.736 37.261c.04.03.046.081.02.119a.086.086 0 01-.12.017l-49.737-37.263a.084.084 0 01-.033-.062m-84.855-37.8a.097.097 0 01.065-.097.097.097 0 01.124.059l16.032 46.074a.099.099 0 01-.061.124.098.098 0 01-.123-.06l-16.033-46.073a.125.125 0 01-.005-.027"/><path d="M174.528 296.791c0-.013.002-.029.006-.042l11.173-24.84a.092.092 0 01.12-.045.09.09 0 01.046.12l-11.171 24.839a.09.09 0 01-.174-.031"/><path d="M130.095 272.576a.079.079 0 01.01-.042c.019-.038.067-.05.105-.03l44.445 24.214c.04.02.055.067.032.105a.076.076 0 01-.105.031l-44.447-24.214a.081.081 0 01-.04-.064"/><path d="M130.069 272.577a.1.1 0 01.04-.087l28.414-21.86a.105.105 0 01.146.018.103.103 0 01-.019.147l-28.413 21.86a.104.104 0 01-.146-.021.089.089 0 01-.022-.057"/><path d="M119.648 259.087a.104.104 0 01.186-.07l10.422 13.491a.103.103 0 01-.02.146.104.104 0 01-.145-.019l-10.42-13.492a.089.089 0 01-.023-.056m120.184-51.927c0-.01 0-.018.003-.028a.094.094 0 01.11-.067l32.824 8.343a.096.096 0 01.067.11.092.092 0 01-.112.067l-32.823-8.341a.093.093 0 01-.069-.084"/><path d="M272.669 215.501c0-.007 0-.015.002-.024l12-47.825a.076.076 0 01.094-.058.08.08 0 01.057.095l-12 47.827a.077.077 0 01-.094.057.078.078 0 01-.059-.072m-19.547 98.464a.118.118 0 01.091-.121.117.117 0 01.14.09l10.905 51.304c.02.066-.027.125-.09.138a.119.119 0 01-.139-.09l-10.904-51.303a.055.055 0 01-.003-.018"/><path d="M258.164 333.68a.183.183 0 01.361-.042l5.798 31.591c.013.106-.048.194-.147.211a.183.183 0 01-.211-.146l-5.798-31.592c0-.008-.002-.016-.003-.022m-5.068-19.713a.142.142 0 01.078-.137.146.146 0 01.193.064l17.207 34.006a.144.144 0 01-.063.191.144.144 0 01-.192-.064l-17.207-34.004a.143.143 0 01-.016-.056"/><path d="M258.184 333.68a.163.163 0 01.286-.115l12.101 14.295a.164.164 0 01-.018.228.163.163 0 01-.23-.02l-12.1-14.293a.163.163 0 01-.039-.096m-5.407-49.983a.093.093 0 01.03-.074.093.093 0 01.13.01l44.071 51.503a.09.09 0 01-.01.128.093.093 0 01-.129-.01l-44.071-51.503a.092.092 0 01-.021-.054"/><path d="M253.155 313.963a.075.075 0 01.007-.041.085.085 0 01.113-.04l43.702 21.236a.08.08 0 01.038.112.084.084 0 01-.113.04l-43.7-21.235a.084.084 0 01-.047-.072m-9.815-25.445c0-.005-.002-.011 0-.018l8.187-62.835a.089.089 0 01.102-.078.088.088 0 01.077.101l-8.186 62.838a.09.09 0 01-.102.077.091.091 0 01-.079-.085"/><path d="M235.027 255.56a.157.157 0 01.118-.161.156.156 0 01.189.114l8.248 32.962a.156.156 0 11-.303.075l-8.247-32.961c-.002-.011-.005-.02-.005-.03"/><path d="M243.32 288.52a.11.11 0 01.06-.105l9.437-4.822a.11.11 0 01.148.048c.03.053.007.12-.048.148l-9.437 4.822a.11.11 0 01-.148-.048.114.114 0 01-.012-.044m-84.81-37.802a.077.077 0 01.125-.065l27.203 21.233c.035.026.04.077.013.11a.077.077 0 01-.108.012l-27.204-21.233a.072.072 0 01-.03-.057"/><path d="M185.693 271.951a.093.093 0 01.03-.075l35.13-34.118a.098.098 0 01.14.002.1.1 0 01-.002.137l-35.133 34.119a.096.096 0 01-.136-.002.09.09 0 01-.029-.063m-27.19-21.234a.087.087 0 01.024-.066l36.265-35.04a.082.082 0 01.117.003.084.084 0 010 .119l-36.263 35.04a.085.085 0 01-.12-.002.086.086 0 01-.023-.054"/><path d="M194.74 215.679a.111.111 0 01.045-.097l25.676-18.396a.11.11 0 11.127.179l-25.675 18.397a.11.11 0 01-.153-.027.092.092 0 01-.02-.056"/><path d="M194.766 215.677a.084.084 0 01.068-.088l45.073-8.518a.088.088 0 01.1.068c.013.041-.023.09-.068.099l-45.075 8.517a.084.084 0 01-.098-.067c0-.004-.002-.007 0-.011"/><path d="M220.447 197.28a.089.089 0 01.007-.04.078.078 0 01.106-.035l19.399 9.88c.038.02.052.065.033.105a.075.075 0 01-.104.034l-19.399-9.879a.081.081 0 01-.042-.066"/><path d="M239.845 207.159a.08.08 0 01.026-.064l44.825-39.484a.079.079 0 01.11.007.08.08 0 01-.008.111l-44.824 39.485a.08.08 0 01-.11-.007.078.078 0 01-.019-.048"/><path d="M239.845 207.159c0-.017.003-.033.012-.047l30.53-46.552a.08.08 0 01.108-.024.078.078 0 01.023.11l-30.53 46.552a.08.08 0 01-.108.023.08.08 0 01-.035-.062"/><path d="M239.813 207.16a.113.113 0 01.084-.113l38-9.38a.11.11 0 01.132.08c.021.06-.02.119-.08.134l-38 9.381a.112.112 0 01-.136-.101"/><path d="M277.839 197.778c0-.01.001-.02.004-.031l17.674-54.15a.085.085 0 01.107-.054c.043.016.069.063.055.106l-17.675 54.15a.086.086 0 01-.108.055.086.086 0 01-.057-.076"/><path d="M270.375 160.607a.077.077 0 01.06-.081.078.078 0 01.094.061l7.47 37.171c.003.038-.019.083-.06.091a.078.078 0 01-.093-.06l-7.47-37.171v-.011m-42.763 213.218l.001-.031 11.484-56.696a.117.117 0 01.138-.091c.064.012.106.07.092.138l-11.484 56.697a.12.12 0 01-.138.092.119.119 0 01-.093-.109"/><path d="M227.6 373.826a.121.121 0 01.017-.074l20.925-35.475a.131.131 0 01.18-.046c.06.035.082.115.044.177l-20.925 35.477a.13.13 0 01-.241-.06"/><path d="M248.564 338.348v-.006l.73-64.658a.091.091 0 01.093-.091.09.09 0 01.09.087l.001.005-.732 64.659a.092.092 0 01-.092.09.09.09 0 01-.09-.086"/><path d="M248.557 338.348a.102.102 0 01.055-.094l9.691-4.672a.097.097 0 01.086.175l-9.693 4.673a.096.096 0 01-.129-.045.12.12 0 01-.01-.037"/><path d="M238.98 317.135a.233.233 0 01.447-.108l9.44 21.22a.233.233 0 11-.426.19l-9.442-21.22a.239.239 0 01-.02-.082"/><path d="M209.492 352.689a.104.104 0 01.067-.104l39.06-14.34a.105.105 0 01.133.062c.022.05-.007.113-.061.134l-39.059 14.34a.105.105 0 01-.14-.092m42.29-84.571a.097.097 0 01.088-.102c.053-.005.1.035.106.088l6.467 65.556c0 .002.002.003 0 .005a.097.097 0 01-.087.101.096.096 0 01-.106-.087l-6.467-65.557a.003.003 0 010-.004"/><path d="M249.288 273.69a.1.1 0 01.083-.103.101.101 0 01.112.083l8.96 59.985v.01a.1.1 0 01-.082.102.1.1 0 01-.11-.084l-8.962-59.984v-.01"/><path d="M253.005 313.972a.235.235 0 01.175-.24.237.237 0 01.286.168l5.107 19.71c.026.136-.044.253-.168.286a.236.236 0 01-.286-.168l-5.107-19.71a.235.235 0 01-.007-.046"/><path d="M253.11 313.966l-.001-.004-1.36-45.846a.13.13 0 01.26-.01v.004l1.36 45.845a.13.13 0 01-.26.01"/><path d="M249.282 273.69a.105.105 0 01.094-.11.106.106 0 01.113.094l3.853 40.275c.001.062-.036.107-.093.113a.105.105 0 01-.114-.094l-3.852-40.274c0-.002-.002-.003-.001-.004"/><path d="M253.141 313.964v-.005l-.37-30.267a.095.095 0 01.095-.098.098.098 0 01.099.092v.004l.37 30.267a.094.094 0 01-.095.098.096.096 0 01-.099-.09"/><path d="M252.783 283.696v-.002l-1.252-58.016a.085.085 0 01.17-.007l-.001.004 1.251 58.014a.084.084 0 01-.168.007"/><path d="M242.412 225.545a.089.089 0 01.075-.094.091.091 0 01.106.073l10.363 58.151c.015.062-.024.097-.072.105a.09.09 0 01-.106-.073l-10.365-58.15v-.012"/><path d="M251.789 268.118a.09.09 0 01.084-.095.093.093 0 01.097.085l.989 15.577-.001.001a.09.09 0 01-.085.096.089.089 0 01-.095-.085l-.99-15.578v-.001z"/><path d="M235.08 255.556a.104.104 0 01.047-.094.106.106 0 01.145.033l17.684 28.14a.106.106 0 01-.034.145.105.105 0 01-.143-.034l-17.685-28.14a.112.112 0 01-.015-.05"/><path d="M235.099 255.555a.089.089 0 01.022-.063l46.315-50.347a.086.086 0 01.12-.003.085.085 0 01.005.119l-46.316 50.347c-.031.034-.084.034-.12.005a.087.087 0 01-.026-.058"/><path d="M235.022 255.559a.166.166 0 01.019-.088l16.432-29.873a.16.16 0 01.22-.064c.08.043.105.144.066.22l-16.433 29.874a.163.163 0 01-.22.064.16.16 0 01-.084-.133"/><path d="M220.825 237.833a.1.1 0 01.037-.083.098.098 0 01.137.016l14.26 17.723a.095.095 0 01-.015.137.097.097 0 01-.138-.015l-14.258-17.724a.088.088 0 01-.023-.054"/><path d="M220.839 237.832a.082.082 0 01.053-.083l30.693-12.151a.083.083 0 01.109.048.082.082 0 01-.046.11l-30.694 12.149a.083.083 0 01-.11-.047.059.059 0 01-.005-.026"/><path d="M220.8 237.834c-.001-.013.002-.027.004-.04l8.253-30.102a.123.123 0 01.151-.086.12.12 0 01.087.151l-8.253 30.103a.121.121 0 01-.15.085.122.122 0 01-.093-.11"/><path d="M220.427 197.28a.1.1 0 01.036-.081.096.096 0 01.136.014l8.653 10.449c.034.04.03.102-.012.137a.1.1 0 01-.14-.013l-8.65-10.45a.089.089 0 01-.023-.056M75.097 378.97a.1.1 0 01.024-.07l49.54-55.998a.097.097 0 01.136-.01.1.1 0 01.01.138l-49.54 56a.098.098 0 01-.17-.06m90.866-56.059a.132.132 0 01.118-.137.132.132 0 01.14.117l5.263 53.951c.003.073-.046.135-.118.141a.13.13 0 01-.142-.116l-5.262-53.95v-.006"/><path d="M124.635 322.97a.096.096 0 01.035-.078c.04-.035.1-.03.137.01l46.62 53.89a.097.097 0 01-.148.127l-46.619-53.89a.096.096 0 01-.025-.058m41.354-.061a.105.105 0 01.162-.093l43.503 29.78c.048.032.06.097.027.144a.104.104 0 01-.144.028l-43.503-29.78a.105.105 0 01-.045-.079"/><path d="M209.472 352.69a.121.121 0 01.03-.087l29.617-35.56a.123.123 0 01.19.157l-29.62 35.562a.123.123 0 01-.217-.072"/><path d="M239.097 317.128a.09.09 0 010-.022l7.286-57.275a.116.116 0 01.13-.1c.063.007.11.064.102.13l-7.286 57.276a.116.116 0 01-.13.1.118.118 0 01-.102-.11"/><path d="M239.11 317.128c-.001-.01 0-.02.002-.03l10.172-43.438a.105.105 0 01.126-.077.1.1 0 01.076.126l-10.171 43.436a.104.104 0 01-.206-.017"/><path d="M239.103 317.127v-.017l6.069-59.94a.11.11 0 01.121-.099c.06.008.108.057.1.12l-6.07 59.942a.112.112 0 01-.121.1.113.113 0 01-.099-.106m10.185-43.437l.002-.021 9.77-60.886a.097.097 0 01.111-.08c.054.008.086.061.082.11l-9.771 60.887a.096.096 0 01-.112.08.097.097 0 01-.082-.09"/><path d="M249.288 273.69c0-.002 0-.004.002-.007l.332-67.289c0-.052.044-.097.099-.097a.099.099 0 01.096.093l-.001.006-.333 67.288a.097.097 0 01-.098.098.099.099 0 01-.097-.092"/><path d="M246.337 259.855a.162.162 0 01.128-.167.164.164 0 01.193.126l2.887 13.838a.16.16 0 01-.126.19.161.161 0 01-.192-.124l-2.888-13.837-.002-.026"/><path d="M249.204 273.695a.19.19 0 01.016-.086l2.493-5.57a.182.182 0 01.24-.091.187.187 0 01.092.24l-2.493 5.572a.182.182 0 01-.348-.065"/><path d="M245.184 257.187a.098.098 0 01.193-.03l4.103 16.504a.098.098 0 01-.07.118.098.098 0 01-.12-.071l-4.102-16.504a.05.05 0 01-.004-.017m6.598 10.931v-.002l-2.16-61.719a.097.097 0 01.095-.1.096.096 0 01.1.092v.003l2.16 61.718a.1.1 0 01-.095.102.1.1 0 01-.1-.094"/><path d="M246.408 259.853c0-.033.013-.064.04-.081a.088.088 0 01.126.025l5.382 8.266a.09.09 0 01-.029.127.09.09 0 01-.124-.027l-5.381-8.267a.084.084 0 01-.014-.043"/><path d="M242.4 225.546a.105.105 0 01.08-.107.105.105 0 01.125.08l9.376 42.573a.1.1 0 01-.08.123.105.105 0 01-.124-.08l-9.376-42.572-.002-.017"/><path d="M242.4 225.546a.097.097 0 01.03-.08l40.579-40.835a.105.105 0 01.147-.001c.04.04.04.108.001.147l-40.581 40.837a.104.104 0 01-.177-.068"/><path d="M242.393 225.547a.103.103 0 01.026-.078l31.044-36.296c.04-.046.11-.05.156-.012a.11.11 0 01.012.156l-31.044 36.296a.111.111 0 01-.194-.066"/><path d="M242.412 225.545a.08.08 0 01.006-.035l7.216-19.147a.09.09 0 01.117-.053c.047.018.07.07.053.118l-7.216 19.143a.09.09 0 01-.176-.026"/><path d="M242.419 225.545l-.001-.006c0-.047.039-.083.086-.083l9.115.135a.086.086 0 01.082.08v.007c0 .047-.04.084-.086.082l-9.114-.135a.085.085 0 01-.082-.08"/><path d="M251.533 225.68a.077.077 0 01.024-.064l49.182-48.1a.083.083 0 01.12.001.084.084 0 01-.003.12l-49.181 48.1a.084.084 0 01-.12-.001.08.08 0 01-.022-.056"/><path d="M251.526 225.68c0-.02.004-.041.018-.06l31.467-40.972a.091.091 0 01.145.11l-31.467 40.973a.092.092 0 01-.129.017.09.09 0 01-.034-.067"/><path d="M251.46 225.684a.158.158 0 01.068-.137l29.884-20.472a.156.156 0 01.216.04.157.157 0 01-.04.217l-29.883 20.473a.156.156 0 01-.217-.042.151.151 0 01-.027-.079"/><path d="M275.369 171.794a.103.103 0 01.085-.108c.056-.01.11.027.12.084l6.027 33.415c0 .06-.027.11-.082.121a.104.104 0 01-.122-.085l-6.027-33.414a.03.03 0 01-.001-.013"/><path d="M251.034 132.723a.116.116 0 01.055-.107.118.118 0 01.161.039l24.32 39.072a.117.117 0 01-.036.161.117.117 0 01-.161-.038l-24.322-39.073a.109.109 0 01-.017-.054m28.019 22.043v-.005l.636-63.47c0-.046.038-.082.086-.083a.086.086 0 01.083.086l-.637 63.47a.085.085 0 01-.086.083.085.085 0 01-.082-.08"/><path d="M279.014 154.769v-.002l-1.62-40.483a.124.124 0 01.118-.128.126.126 0 01.13.117c-.002 0-.002 0-.001.003l1.619 40.481a.124.124 0 01-.12.13.123.123 0 01-.126-.118"/><path d="M251.053 132.721a.102.102 0 01.02-.065.099.099 0 01.138-.016l27.986 22.046c.042.032.05.094.017.136a.1.1 0 01-.138.017l-27.986-22.046a.097.097 0 01-.037-.072m28.637-41.423a.083.083 0 01.072-.088.083.083 0 01.095.072l6.323 45.521a.01.01 0 000 .007.085.085 0 01-.072.09.086.086 0 01-.096-.073l-6.323-45.522v-.007M9.313 329.884a.107.107 0 01.034-.083.105.105 0 01.146.007l43.355 46.89c.04.04.037.107-.005.146a.105.105 0 01-.148-.006L9.34 329.948a.096.096 0 01-.028-.064m115.246-6.908c0-.015 0-.03.003-.046l8.708-42.66a.174.174 0 01.205-.137c.096.02.162.11.139.208L124.906 323a.176.176 0 01-.348-.025"/><path d="M124.565 322.975v-.01a.166.166 0 01.168-.167l41.36-.062c.092 0 .173.075.168.168a.168.168 0 01-.167.169l-41.361.061a.167.167 0 01-.168-.159"/><path d="M133.304 280.313a.132.132 0 01.053-.116.136.136 0 01.191.025l32.652 42.6a.136.136 0 11-.216.166l-32.653-42.6a.137.137 0 01-.027-.075"/><path d="M165.943 322.912a.149.149 0 01.026-.092l27.336-40.37a.152.152 0 01.21-.04.15.15 0 01.039.207l-27.338 40.37a.149.149 0 01-.273-.075"/><path d="M155.28 229.225a.097.097 0 01.04-.085.097.097 0 01.136.023l38.053 53.314a.098.098 0 01-.023.136.098.098 0 01-.136-.022l-38.053-53.315a.123.123 0 01-.018-.05"/><path d="M193.293 282.542c0-.02.003-.042.011-.063l21.131-49.489a.137.137 0 01.251.108l-21.13 49.49a.139.139 0 01-.18.072.141.141 0 01-.083-.118"/><path d="M177.779 240.888a.161.161 0 01.314-.065l15.49 41.655a.163.163 0 01-.306.113l-15.489-41.656a.19.19 0 01-.01-.047"/><path d="M133.33 280.311v-.009a.11.11 0 01.114-.108l59.99 2.23c.06.001.114.051.105.113a.109.109 0 01-.113.107l-59.99-2.229a.11.11 0 01-.106-.104"/><path d="M193.332 282.54a.099.099 0 01.054-.094l51.853-25.352a.099.099 0 01.13.045.095.095 0 01-.044.128l-51.852 25.355a.099.099 0 01-.131-.045.103.103 0 01-.01-.038"/><path d="M245.152 257.19c0-.017.001-.032.006-.047l13.874-44.383a.13.13 0 11.248.077l-13.874 44.383a.128.128 0 01-.163.085.132.132 0 01-.091-.116"/><path d="M245.062 257.194a.22.22 0 01.42-.105l1.218 2.666a.221.221 0 01-.403.184l-1.217-2.667a.217.217 0 01-.018-.078"/><path d="M214.425 233.053a.13.13 0 01.029-.091.135.135 0 01.19-.023l30.722 24.135c.06.046.07.132.024.191a.135.135 0 01-.191.023l-30.722-24.136a.138.138 0 01-.052-.099m31.932 26.802a.153.153 0 01.003-.045l12.658-47.049a.144.144 0 01.175-.1c.079.02.12.098.101.175l-12.657 47.048a.143.143 0 01-.28-.03"/><path d="M246.4 259.853l.002-.012 3.22-53.452a.095.095 0 01.103-.09c.054.002.087.054.092.101l-3.221 53.453a.1.1 0 01-.104.092.101.101 0 01-.091-.092"/><path d="M214.47 233.05a.09.09 0 01.02-.063.093.093 0 01.13-.012l31.936 26.802c.038.032.043.09.011.128a.089.089 0 01-.127.01l-31.936-26.801a.085.085 0 01-.034-.064m35.146-26.65a.1.1 0 01.03-.078l42.362-42.49c.04-.04.106-.04.147 0 .04.04.04.107.001.147l-42.364 42.49a.104.104 0 01-.176-.069"/><path d="M249.485 206.408v-.024l.9-21.031a.237.237 0 01.244-.224c.129.004.23.106.224.244l-.9 21.033a.232.232 0 01-.243.222.236.236 0 01-.225-.22"/><path d="M249.577 206.403a.135.135 0 01.024-.088.141.141 0 01.197-.038l9.438 6.404a.143.143 0 01-.16.236l-9.436-6.403a.145.145 0 01-.063-.111"/><path d="M249.583 206.403a.135.135 0 01.057-.119l23.828-17.15a.136.136 0 01.159.222l-23.828 17.15a.135.135 0 01-.19-.032.12.12 0 01-.026-.071"/><path d="M250.509 185.368c0-.007 0-.016.002-.024a.11.11 0 01.126-.09l22.929 3.883c.059.01.1.07.09.127a.11.11 0 01-.127.09l-22.928-3.882a.113.113 0 01-.092-.104m.544-52.647c0-.02.004-.041.017-.06l28.623-41.423a.1.1 0 01.137-.025.1.1 0 01.024.135l-28.623 41.423a.096.096 0 01-.135.025.095.095 0 01-.043-.075"/><path d="M250.995 132.725a.139.139 0 01.01-.064l11.83-31.083a.159.159 0 01.202-.09c.08.032.12.122.088.202l-11.829 31.082a.156.156 0 01-.301-.047"/><path d="M251.034 132.723a.119.119 0 01.049-.103l26.366-18.436a.118.118 0 01.163.028.12.12 0 01-.027.164l-26.367 18.437a.117.117 0 01-.163-.031.107.107 0 01-.02-.059"/><path d="M262.87 101.64a.112.112 0 01.026-.08.112.112 0 01.157-.01l14.536 12.647a.11.11 0 01.012.156.112.112 0 01-.156.01l-14.537-12.645a.107.107 0 01-.037-.077M152.543 334.94a.16.16 0 01.137-.17.161.161 0 01.185.136l8.435 55.158c.022.091-.047.171-.136.185a.164.164 0 01-.185-.136l-8.434-55.159c-.002-.005-.001-.01-.002-.014m-19.239-54.627c0-.02 0-.041.011-.062l21.937-51.085c.03-.07.11-.102.179-.071.068.03.1.108.072.178l-21.937 51.087a.137.137 0 01-.262-.047"/><path d="M133.324 280.312a.114.114 0 01.038-.094l44.501-39.427a.116.116 0 01.155.175l-44.5 39.427a.117.117 0 01-.194-.081"/><path d="M172.042 186.515a.123.123 0 01.246-.019l5.775 54.37c.011.08-.042.128-.109.135a.124.124 0 01-.136-.11l-5.775-54.37v-.006z"/><path d="M155.215 229.229a.162.162 0 01.236-.153l22.564 11.658a.163.163 0 01-.149.289l-22.564-11.66a.161.161 0 01-.087-.134"/><path d="M177.779 240.888a.162.162 0 01.127-.167l36.621-7.833a.162.162 0 01.193.123.165.165 0 01-.126.193l-36.62 7.833a.161.161 0 01-.192-.124l-.003-.025"/><path d="M214.437 233.052a.154.154 0 01.005-.045l18.5-58.238c.021-.065.09-.1.155-.08.065.02.097.091.08.157l-18.498 58.237a.123.123 0 01-.156.08.123.123 0 01-.086-.11m36.02-47.682a.16.16 0 01.114-.163.162.162 0 01.203.106l8.537 27.436c.033.088-.02.176-.107.203a.16.16 0 01-.203-.106l-8.536-27.436a.111.111 0 01-.008-.04"/><path d="M250.521 185.368l.003-.028 15.072-68.696a.098.098 0 01.117-.074.095.095 0 01.073.116l-15.072 68.698a.099.099 0 01-.116.075.102.102 0 01-.077-.09"/><path d="M245.906 143.096a.09.09 0 01.08-.095.091.091 0 01.1.081l4.623 42.271a.095.095 0 01-.08.1.093.093 0 01-.1-.08l-4.623-42.272v-.005"/><path d="M250.509 185.368a.107.107 0 01.06-.103l41.462-21.458a.11.11 0 01.148.048.108.108 0 01-.046.148L250.67 185.46a.111.111 0 01-.15-.047.114.114 0 01-.011-.045m12.374-83.728a.11.11 0 01.011-.051l29.527-55.395a.1.1 0 01.131-.04.099.099 0 01.04.133l-29.525 55.394a.099.099 0 01-.132.04.099.099 0 01-.052-.081"/><path d="M262.87 101.64a.097.097 0 01.019-.067l27.773-41.294a.112.112 0 01.154-.03c.05.035.063.105.03.154l-27.773 41.293a.112.112 0 01-.154.03.111.111 0 01-.048-.085"/><path d="M262.864 101.641a.116.116 0 01.055-.106l16.793-10.343a.118.118 0 01.16.039.119.119 0 01-.037.16l-16.793 10.343a.117.117 0 01-.178-.093"/><path d="M279.69 91.298l.001-.024 14.204-64.687a.085.085 0 01.101-.065c.046.009.078.056.064.1l-14.205 64.689a.084.084 0 01-.1.065.084.084 0 01-.065-.078m-89.5 303.224l.002-.03 10.15-74.704a.156.156 0 01.31.041L190.5 394.533a.154.154 0 01-.175.134.155.155 0 01-.135-.145"/><path d="M202.483 389.09l.001-.004-2.11-69.274a.123.123 0 01.246-.01c.002.001 0 .003 0 .004l2.11 69.271a.123.123 0 01-.246.012M133.09 263.18a.13.13 0 01.254-.04l19.486 71.757a.13.13 0 11-.25.068l-19.486-71.757-.005-.027"/><path d="M152.595 334.937c0-.01 0-.02.002-.03l16.88-79.045a.108.108 0 01.131-.085c.06.013.099.071.085.13l-16.88 79.046a.108.108 0 01-.131.085.109.109 0 01-.087-.101m-71.093-54.011a.12.12 0 01.017-.068l34.517-54.535a.117.117 0 01.162-.037c.055.036.07.108.036.161l-34.517 54.534a.116.116 0 01-.16.036.113.113 0 01-.055-.091"/><path d="M81.476 280.928a.145.145 0 01.096-.145l51.601-17.744a.143.143 0 01.182.088.145.145 0 01-.089.182l-51.6 17.745a.142.142 0 01-.182-.088c-.005-.013-.006-.026-.008-.038m-15.06-29.91l-.267.354 31.013-8.387c.073-.02.12-.089.095-.167a.135.135 0 00-.166-.096l-30.675 8.296z"/><path d="M96.964 242.862a.162.162 0 01.056-.131l19.009-16.468a.164.164 0 01.229.015c.06.067.053.17-.016.23l-19.009 16.468a.162.162 0 01-.269-.114m58.303-13.636a.09.09 0 01.005-.04l22.61-69.696a.111.111 0 01.14-.072c.057.02.088.082.07.14l-22.61 69.695a.11.11 0 01-.14.071.112.112 0 01-.075-.098"/><path d="M155.208 229.23a.17.17 0 01.011-.072l16.789-42.711a.171.171 0 01.22-.096.17.17 0 01.095.22l-16.788 42.71a.169.169 0 01-.327-.052"/><path d="M171.893 186.524a.25.25 0 01.006-.073l5.82-26.985a.271.271 0 01.324-.208.27.27 0 01.21.324l-5.822 26.985a.27.27 0 01-.323.208.277.277 0 01-.215-.25"/><path d="M159.757 155.496a.11.11 0 01.07-.109.11.11 0 01.143.063l12.298 31.018a.108.108 0 01-.06.143.111.111 0 01-.144-.062l-12.3-31.017a.151.151 0 01-.007-.036"/><path d="M172.062 186.514a.105.105 0 01.085-.108l60.893-11.7a.103.103 0 01.122.081.103.103 0 01-.083.122l-60.894 11.701a.104.104 0 01-.121-.082.034.034 0 01-.002-.014"/><path d="M219.535 97.691a.099.099 0 01.08-.102.1.1 0 01.114.08l13.426 77.12c.006.057-.025.106-.078.115a.1.1 0 01-.114-.08l-13.427-77.121v-.012"/><path d="M213.882 129.974a.157.157 0 01.094-.152.154.154 0 01.204.082l19.022 44.842a.153.153 0 01-.081.204.153.153 0 01-.204-.082l-19.022-44.843a.158.158 0 01-.013-.051"/><path d="M177.876 159.53a.112.112 0 01.14-.113l55.072 15.284c.06.016.094.077.079.136a.113.113 0 01-.137.078l-55.073-15.286a.111.111 0 01-.08-.099"/><path d="M232.924 174.815c-.002-.02 0-.04.009-.06l12.937-31.716a.138.138 0 01.179-.074c.07.03.1.109.074.178l-12.937 31.716a.136.136 0 01-.177.074.134.134 0 01-.085-.118"/><path d="M213.469 79.055a.1.1 0 01.054-.093.098.098 0 01.13.045l32.43 64.04a.097.097 0 01-.042.131.098.098 0 01-.132-.042l-32.43-64.043a.126.126 0 01-.01-.038"/><path d="M245.872 143.099l.002-.004-1.325-55.074a.122.122 0 01.12-.124.123.123 0 01.126.116v.003l1.323 55.073a.12.12 0 01-.119.125.124.124 0 01-.127-.115"/><path d="M219.503 97.693a.13.13 0 01.242-.072l26.365 45.406a.128.128 0 01-.049.177.13.13 0 01-.177-.048L219.52 97.75a.1.1 0 01-.018-.057"/><path d="M213.895 129.973a.13.13 0 01.01-.062.14.14 0 01.186-.077l31.96 13.125a.14.14 0 01.076.186.142.142 0 01-.185.079l-31.957-13.127a.14.14 0 01-.09-.124"/><path d="M245.872 143.099c0-.029.007-.057.026-.082l19.694-26.426a.124.124 0 01.173-.025c.056.041.067.12.026.172l-19.695 26.427a.123.123 0 01-.173.025.123.123 0 01-.05-.091"/><path d="M265.562 116.673c0-.028.005-.054.021-.078l31.38-48.805a.13.13 0 01.217.14l-31.379 48.805a.13.13 0 01-.239-.062"/><path d="M244.522 88.028a.15.15 0 01.27-.097l21.02 28.647a.151.151 0 01-.032.208.152.152 0 01-.208-.032l-21.02-28.647a.155.155 0 01-.03-.079m47.888-41.783v-.003l-1.078-62.759c0-.055.042-.099.095-.1.053 0 .096.04.099.092a.003.003 0 010 .005l1.077 62.758a.097.097 0 01-.194.007"/><path d="M283.412-24.8a.103.103 0 01.083-.108.105.105 0 01.123.082l10.462 51.41a.102.102 0 01-.082.122.104.104 0 01-.122-.081l-10.462-51.41-.002-.015M105.343 414.644l-.001-.013 1.473-74.375c.001-.1.085-.18.185-.179.1.002.167.088.18.186l-1.474 74.374a.182.182 0 01-.363.006m41.954-35.321v-.014l3.458-82.366a.149.149 0 01.156-.143c.082.002.145.079.142.156l-3.457 82.366a.15.15 0 01-.299 0"/><path d="M147.284 379.323a.16.16 0 01.074-.145l42.258-27.42a.163.163 0 01.226.046.16.16 0 01-.048.224l-42.26 27.422a.163.163 0 01-.25-.127"/><path d="M106.797 340.27a.195.195 0 01.056-.15.2.2 0 01.284-.005l40.449 39.055a.2.2 0 01.005.284.2.2 0 01-.284.004l-40.45-39.055a.193.193 0 01-.06-.132"/><path d="M77.914 343.828a.136.136 0 01.198-.129l69.397 35.493a.137.137 0 01-.124.244l-69.397-35.494a.135.135 0 01-.074-.114m87.591-70.568a.151.151 0 01.106-.151.152.152 0 01.187.1l24.05 78.64a.149.149 0 01-.099.187.15.15 0 01-.186-.099l-24.052-78.641a.141.141 0 01-.006-.035"/><path d="M150.736 296.957a.167.167 0 01.07-.147.168.168 0 01.236.04l38.801 54.946a.17.17 0 01-.04.235.169.169 0 01-.235-.041l-38.802-54.945a.177.177 0 01-.03-.088"/><path d="M189.446 351.908c0-.033.003-.067.014-.098l10.791-32.084a.26.26 0 01.493.165l-10.792 32.085a.258.258 0 01-.33.163.261.261 0 01-.176-.231"/><path d="M165.467 273.263a.189.189 0 01.339-.124l34.842 46.558a.188.188 0 01-.3.225l-34.844-46.557a.19.19 0 01-.037-.102"/><path d="M150.754 296.956a.149.149 0 01.213-.143l49.593 22.86a.148.148 0 01.073.199.149.149 0 01-.198.073l-49.594-22.862a.151.151 0 01-.087-.127m-12.225-79.639a.15.15 0 01.266-.101l30.907 38.576a.148.148 0 01-.022.209.15.15 0 01-.211-.023l-30.908-38.576a.142.142 0 01-.032-.085"/><path d="M133.09 263.18a.131.131 0 01.103-.134l36.366-7.29a.13.13 0 01.052.256l-36.366 7.288a.13.13 0 01-.153-.1c0-.007-.003-.014-.003-.02"/><path d="M125.853 186.483a.13.13 0 01.117-.137.132.132 0 01.142.118l7.237 76.697c.015.064-.046.136-.118.143a.132.132 0 01-.141-.12l-7.237-76.696a.003.003 0 010-.005m-9.841 39.91a.112.112 0 01.003-.036l14.096-59.54a.122.122 0 01.148-.09.12.12 0 01.092.149l-14.095 59.538a.122.122 0 01-.148.09.123.123 0 01-.096-.111"/><path d="M115.954 226.396a.177.177 0 01.06-.145l35.692-32.233a.181.181 0 01.255.013.18.18 0 01-.012.257l-35.691 32.232a.181.181 0 01-.257-.012.177.177 0 01-.047-.112"/><path d="M144.06 147.98l7.638 46.195c.012.069.08.117.15.106.07-.01.105-.069.108-.149l-7.68-46.439-.216.287z"/><path d="M130.036 166.858a.195.195 0 01.074-.165.198.198 0 01.274.032l21.595 27.307a.194.194 0 11-.304.24l-21.598-27.306a.192.192 0 01-.04-.108"/><path d="M125.872 186.482c0-.012 0-.025.004-.036a.112.112 0 01.138-.075l25.844 7.676a.11.11 0 01.074.137.109.109 0 01-.136.075l-25.845-7.677a.11.11 0 01-.079-.1"/><path d="M151.704 194.16a.089.089 0 01.002-.033l8.04-38.663a.123.123 0 01.146-.095.127.127 0 01.096.147l-8.04 38.662a.123.123 0 01-.146.096.123.123 0 01-.098-.114"/><path d="M171.112 112.08l-11.352 43.382a.118.118 0 00-.003.034.113.113 0 00.083.1.11.11 0 00.135-.077l11.487-43.903-.35.465z"/><path d="M164.137 121.337l-4.49 34.124a.198.198 0 000 .041.219.219 0 00.192.206.22.22 0 00.248-.189l4.59-34.897-.54.715z"/><path d="M150.152 139.896l9.611 15.659a.122.122 0 00.169.04.121.121 0 00.04-.169l-9.66-15.742-.16.212z"/><path d="M159.751 155.497c0-.012 0-.022.003-.033a.114.114 0 01.138-.087l18.119 4.033a.115.115 0 01.089.139.114.114 0 01-.137.088l-18.12-4.034a.114.114 0 01-.092-.106"/><path d="M193.785 81.993l-15.9 77.51a.125.125 0 00-.003.026.106.106 0 00.084.096.103.103 0 00.122-.08l15.97-77.851c.003-.015-.019-.02-.022-.034l-.251.333z"/><path d="M174.161 108.034l3.69 51.5a.136.136 0 00.272-.017l-.001-.003-3.712-51.81-.249.33z"/><path d="M177.87 159.53a.12.12 0 01.042-.096l36.051-29.56a.117.117 0 01.165.018.115.115 0 01-.015.164l-36.052 29.557a.118.118 0 01-.165-.016.12.12 0 01-.026-.066"/><path d="M213.888 129.973v-.007l-.47-50.915a.148.148 0 01.148-.15c.082-.002.147.058.15.149l.47 50.914a.15.15 0 01-.298.01"/><path d="M213.94 129.97a.09.09 0 01.019-.062l30.634-41.947a.1.1 0 01.137-.02.098.098 0 01.021.136l-30.635 41.946a.097.097 0 01-.136.02.096.096 0 01-.04-.072"/><path d="M213.823 129.977l.003-.048 5.595-32.28a.215.215 0 01.423.074l-5.594 32.28a.215.215 0 01-.427-.026"/><path d="M193.895 81.846l20.028 48.167c.027.063.1.09.162.066a.124.124 0 00.067-.161L194.07 81.626c-.001-.003-.005 0-.006-.003l-.169.223z"/><path d="M176.985 104.288l36.997 25.757a.1.1 0 00.136-.024.1.1 0 00-.024-.137l-36.992-25.752-.117.156zm33.954-45.059l8.599 38.478a.097.097 0 00.116.074c.051-.01.084-.056.074-.117l-8.634-38.64-.155.205z"/><path d="M219.522 97.692c0-.014.002-.03.006-.043l18.86-53.441a.113.113 0 01.141-.069.112.112 0 01.068.141l-18.86 53.443a.108.108 0 01-.14.067.113.113 0 01-.075-.098"/><path d="M213.223 79.07a.344.344 0 01.672-.127l6.065 18.638a.343.343 0 11-.654.21l-6.067-18.635a.429.429 0 01-.016-.087"/><path d="M219.496 97.694a.136.136 0 01.088-.135l25.038-9.667a.14.14 0 01.178.078.14.14 0 01-.079.177l-25.04 9.666a.137.137 0 01-.177-.077.151.151 0 01-.008-.042"/><path d="M193.918 81.816l25.64 15.99a.141.141 0 00.195-.044.143.143 0 00-.045-.197L194.09 81.588l-.172.228zm44.412-37.563a.162.162 0 01.14-.17.164.164 0 01.184.14l6.18 43.774a.166.166 0 01-.139.184.164.164 0 01-.184-.14l-6.18-43.775a.063.063 0 010-.013"/><path d="M213.437 79.056a.13.13 0 01.166-.131l31.105 8.97a.13.13 0 01.089.16.129.129 0 01-.161.09l-31.105-8.971a.129.129 0 01-.094-.118"/><path d="M244.556 88.026a.119.119 0 01.075-.116l52.398-20.158a.117.117 0 01.152.068.116.116 0 01-.067.15l-52.4 20.158a.118.118 0 01-.151-.066.115.115 0 01-.007-.036"/><path d="M290.653 7.036a.105.105 0 01.094-.11.106.106 0 01.114.094l6.313 60.83c.014.058-.036.109-.093.115a.105.105 0 01-.113-.095l-6.314-60.83a.003.003 0 010-.004"/><path d="M238.394 44.25c0-.014.002-.03.008-.041a.098.098 0 01.126-.055l58.58 23.617c.05.02.073.077.054.126a.098.098 0 01-.127.054l-58.58-23.617a.099.099 0 01-.06-.084M17.32 316.169l21.427 86.442a.136.136 0 00.166.1.132.132 0 00.1-.166l-21.481-86.657-.211.28zm7.202-9.557l53.436 37.341a.162.162 0 10.184-.266l-53.424-37.334-.196.26z"/><path d="M77.726 343.838a.323.323 0 01.283-.34l28.949-3.561a.324.324 0 11.079.645l-28.947 3.561a.326.326 0 01-.363-.282l-.001-.023"/><path d="M106.848 340.268a.148.148 0 01.044-.115l43.906-43.312a.15.15 0 01.211.213l-43.906 43.312a.153.153 0 01-.213-.001.15.15 0 01-.042-.097"/><path d="M93.146 215.546l57.652 81.476a.13.13 0 00.181.032.128.128 0 00.031-.18l-57.7-81.546-.163.217z"/><path d="M150.651 296.963a.25.25 0 01.038-.149l14.75-23.695a.253.253 0 11.431.266l-14.751 23.697a.255.255 0 01-.349.08.252.252 0 01-.119-.2"/><path d="M115.197 202.763a.136.136 0 01.247-.087l50.322 70.496a.14.14 0 01-.032.191.138.138 0 01-.19-.032l-50.323-70.497a.144.144 0 01-.024-.071"/><path d="M93.288 215.357l72.29 57.992a.124.124 0 00.173-.02.122.122 0 00-.02-.173L93.438 215.16l-.149.197z"/><path d="M138.529 217.317a.15.15 0 01.284-.074l26.976 55.944a.149.149 0 01-.068.2.151.151 0 01-.201-.07l-26.976-55.943a.13.13 0 01-.015-.057"/><path d="M115.036 186.496l23.514 30.912c.053.07.155.084.227.03a.16.16 0 00.03-.227l-23.568-30.984-.203.269z"/><path d="M115.047 202.772a.284.284 0 01.437-.258l23.346 14.553c.133.084.175.26.091.394a.287.287 0 01-.394.091l-23.346-14.554a.286.286 0 01-.134-.226"/><path d="M93.779 214.705l-.178.237 45.07 2.49a.123.123 0 00.13-.116c.004-.08-.049-.127-.115-.13l-44.907-2.48zm26.384-35.013l5.685 6.895a.175.175 0 00.246.025.176.176 0 00.024-.248l-5.738-6.96-.217.288z"/><path d="M125.814 186.486c0-.015 0-.03.003-.045l4.248-19.63c.02-.092.11-.15.2-.13.092.019.148.11.132.2l-4.25 19.63a.17.17 0 01-.334-.026M194.172 81.48l-.255.337c.022.005.039.019.062.016l19.61-2.624c.088-.01.16-.09.139-.181a.162.162 0 00-.183-.14l-19.373 2.592z"/><path d="M209.933 60.564l3.513 18.507a.122.122 0 00.144.1.127.127 0 00.1-.144l-3.557-18.728-.2.265z"/><path d="M213.437 79.056a.121.121 0 01.025-.083l24.924-34.805a.13.13 0 01.211.152l-24.924 34.805a.13.13 0 01-.236-.069"/><path d="M243.56 15.94l-5.17 28.286-.001.023a.106.106 0 00.085.098c.056.01.11-.028.12-.084l5.243-28.691-.278.368z"/><path d="M227.279 37.545l11.163 6.782a.098.098 0 00.134-.032.098.098 0 00-.034-.134l-11.146-6.771-.117.155z"/><path d="M238.394 44.25c0-.035.014-.067.044-.086l56.396-37.082a.099.099 0 01.135.028.096.096 0 01-.027.134l-56.397 37.082a.099.099 0 01-.135-.028.109.109 0 01-.016-.048M94.638 213.565l-.517.687 21.298-11.336a.182.182 0 00-.171-.32l-20.61 10.969z"/><path d="M108.343 195.378l6.894 7.464a.13.13 0 00.184.009.127.127 0 00.007-.183l-6.926-7.501-.159.21z"/><path d="M110.635 192.336l4.537 10.49a.178.178 0 00.231.091.18.18 0 00.091-.231l-4.616-10.672-.243.322z"/></g><path d="M201.659 335.29a1 1 0 11-1.995.115 1 1 0 011.995-.115m53.611-4.678a1.002 1.002 0 01-1.997.115 1 1 0 011.998-.115m-122.201-.677a1.001 1.001 0 01-.94 1.056 1.002 1.002 0 01-.115-1.998 1 1 0 011.056.942m35.844-19.32a1.002 1.002 0 01-1.998.115 1 1 0 011.998-.115m93.83-13.186a1 1 0 11-1.997.114 1 1 0 011.997-.114m-22.464 28.149a1 1 0 11-1.995.115 1 1 0 011.995-.115m-80.151-21.582a1 1 0 11-1.998.114 1 1 0 011.998-.114m30.045-19.932a1 1 0 11-1.997.114 1 1 0 011.997-.114m49.398.912a1 1 0 11-1.997.114 1 1 0 011.997-.114m-34.731 57.722a1 1 0 11-1.995.114 1 1 0 011.995-.114m-1.366-14.804a1 1 0 11-1.997.114 1 1 0 011.997-.114m30.253-23.531a1 1 0 11-1.995.115 1 1 0 011.995-.115m-60.314-37.937a1 1 0 11-1.997.114 1 1 0 011.997-.114m77.036-15.826a1 1 0 11-1.998.115 1 1 0 011.998-.115m14.989 5.035a1 1 0 11-1.996.114 1 1 0 011.996-.114m-88.695 41.069a1.5 1.5 0 11-2.993.172 1.5 1.5 0 012.993-.172m-45.343-24.374a1 1 0 11-1.996.114 1 1 0 011.996-.114m-10.372-12.823a1 1 0 11-1.998.114 1 1 0 011.999-.114m53.425-11.079a1 1 0 11-1.995.115 1 1 0 011.995-.115m71.108 40.032a1.5 1.5 0 11-2.995.17 1.5 1.5 0 012.995-.17m-57.962-16.132a1.502 1.502 0 01-1.412 1.584 1.498 1.498 0 01-1.583-1.412 1.5 1.5 0 012.995-.172m-27.752-21.133a1 1 0 11-1.995.114 1 1 0 011.995-.114m36.48-35.118a1 1 0 11-1.996.114 1 1 0 011.996-.114m44.42-9.099a1 1 0 11-1.998.114 1 1 0 011.999-.114m9.7 131.493a1.5 1.5 0 11-2.995.17 1.5 1.5 0 012.995-.17m10.011-4.978a1.499 1.499 0 11-2.995.173 1.5 1.5 0 012.995-.173m-5.556-19.213a1.5 1.5 0 11-2.995.174 1.5 1.5 0 012.995-.174m-.73-30.6a1.501 1.501 0 11-2.998.17 1.501 1.501 0 012.998-.17m-17.536-28.24a1.498 1.498 0 01-1.411 1.582 1.499 1.499 0 11-.172-2.993 1.499 1.499 0 011.582 1.41m-13.958-18.032a1.502 1.502 0 01-1.412 1.584 1.498 1.498 0 01-1.583-1.412 1.5 1.5 0 012.995-.172m8.667-29.78a1.5 1.5 0 11-2.994.172 1.5 1.5 0 012.994-.172m-8.577-10.219a1.5 1.5 0 11-2.994.171 1.5 1.5 0 012.994-.171m18.326 120.242a1.5 1.5 0 11-2.995.173 1.5 1.5 0 012.995-.173m10.3-43.578a1.501 1.501 0 11-2.993.173 1.501 1.501 0 012.993-.173m2.013-5.995a1.5 1.5 0 11-2.995.172 1.5 1.5 0 012.996-.172m-9.505-42.22a1.5 1.5 0 11-2.994.171 1.5 1.5 0 012.994-.171m9.201-.58a1.5 1.5 0 11-2.995.172 1.5 1.5 0 012.995-.172M126.886 322.99a1.5 1.5 0 11-2.996.171 1.5 1.5 0 012.996-.17m41.4-.106a1.5 1.5 0 11-2.994.172 1.5 1.5 0 012.994-.172m26.491-40.141a1.5 1.5 0 11-2.996.172 1.5 1.5 0 012.996-.172m52.059-25.881a1.498 1.498 0 01-1.411 1.582 1.501 1.501 0 111.411-1.582m1.193 3.402a1.5 1.5 0 11-2.996.173 1.5 1.5 0 012.996-.173m3.122-53.993a1.5 1.5 0 11-2.996.172 1.5 1.5 0 012.996-.172m1.767-73.796a1.498 1.498 0 01-1.41 1.583 1.5 1.5 0 111.41-1.582M11.47 329.928a1.501 1.501 0 01-2.996.172 1.502 1.502 0 012.996-.172m123.712-49.518a1.5 1.5 0 11-2.996.17 1.5 1.5 0 012.996-.17m44.489-39.1a1.5 1.5 0 11-2.994.172 1.5 1.5 0 012.994-.172m36.619-8.717a1.498 1.498 0 11-2.994.172 1.5 1.5 0 012.995-.172m45.046-19.898a1.5 1.5 0 11-2.996.172 1.5 1.5 0 012.996-.172m-9.539-27.222a1.501 1.501 0 11-1.584-1.411 1.501 1.501 0 011.584 1.411m13.19-83.969a1.5 1.5 0 11-2.996.172 1.5 1.5 0 012.996-.172m-110.132 234.02a2 2 0 11-3.995.229 2 2 0 013.995-.23m-70.477-54.359a1.997 1.997 0 01-1.881 2.11 1.996 1.996 0 01-2.11-1.88 1.997 1.997 0 011.88-2.111 1.998 1.998 0 012.11 1.88m14.888-37.835a1.5 1.5 0 11-2.996.171 1.5 1.5 0 012.996-.171m58.032-13.868a1.5 1.5 0 11-2.995.17 1.5 1.5 0 012.995-.17m16.896-42.363a1.5 1.5 0 11-2.996.173 1.5 1.5 0 012.996-.173m60.428-12.062a1.5 1.5 0 11-2.996.17 1.5 1.5 0 012.996-.17m12.673-31.772a1.5 1.5 0 11-2.997.171 1.5 1.5 0 012.997-.171m19.859-26.355a1.499 1.499 0 11-2.995.173 1.502 1.502 0 011.412-1.585 1.501 1.501 0 011.583 1.412M202.69 320.233a1.999 1.999 0 11-3.992.229 1.999 1.999 0 113.993-.229m-30.454-64.27a2 2 0 11-3.993.23 2 2 0 013.993-.23m-36.817 7.317a2 2 0 11-3.994.229 2 2 0 013.994-.229m-17.115-36.909a1.5 1.5 0 11-2.994.171 1.5 1.5 0 012.994-.17m35.273-32.052a2 2 0 11-3.994.23 2 2 0 013.994-.23m8.289-39.051a1.5 1.5 0 11-2.995.171 1.5 1.5 0 012.995-.171m17.789 4.641a1.5 1.5 0 11-2.996.172 1.5 1.5 0 012.996-.173m35.866-29.318a1.5 1.5 0 11-2.995.173 1.5 1.5 0 012.995-.173m6.075-32.986a1.5 1.5 0 11-2.993.173 1.5 1.5 0 012.993-.173m24.422-9.145a1.5 1.5 0 11-2.996.172 1.5 1.5 0 012.996-.172M80.436 344.555a1.998 1.998 0 01-1.882 2.11 1.999 1.999 0 11-.23-3.992 2 2 0 012.112 1.882m28.611-4.735a2 2 0 11-3.994.229 2 2 0 013.994-.23m43.898-43.3a2 2 0 11-3.993.23 2 2 0 013.993-.23m14.652-22.766a2 2 0 11-3.992.23 2 2 0 013.992-.23m-26.473-56.261a2 2 0 11-3.993.23 2 2 0 013.993-.23m-12.929-31.029a2 2 0 11-3.994.23 2 2 0 013.994-.23M215.44 79.191a1.5 1.5 0 11-2.994.173 1.5 1.5 0 012.993-.173m25.08-34.943a1.5 1.5 0 11-2.995.172 1.5 1.5 0 012.995-.172m-123.562 158.79a2 2 0 11-3.992.23 2 2 0 013.992-.23" fill="#093657"/></g></svg>